<svg viewBox="0 0 496 496" xmlns="http://www.w3.org/2000/svg"><path d="m258.42 7.9q67 0 124 33.5a250.59 250.59 0 0 1 90.5 90.5q33.5 57 33.5 124t-33.5 124a250.59 250.59 0 0 1 -90.5 90.5q-57 33.5-124 33.5t-124-33.5a250.59 250.59 0 0 1 -90.5-90.5q-33.5-57-33.5-124t33.5-124a250.6 250.6 0 0 1 90.5-90.5q57-33.5 124-33.5zm0 448a194.07 194.07 0 0 0 100-27 201.68 201.68 0 0 0 73-73 198.69 198.69 0 0 0 0-200 201.68 201.68 0 0 0 -73-73 198.68 198.68 0 0 0 -200 0 201.68 201.68 0 0 0 -73 73 198.69 198.69 0 0 0 0 200 201.68 201.68 0 0 0 73 73 194.07 194.07 0 0 0 100 27zm91-312q3-11-3.5-19.5a25.13 25.13 0 0 0 -17-10q-10.5-1.5-19.5 6.5l-102 98a21 21 0 0 0 -7 11l-33 138q-3 11 3.5 19.5a25.13 25.13 0 0 0 17 10q10.5 1.5 19.5-6.5l102-98a21 21 0 0 0 7-11zm-91 80a32.45 32.45 0 1 1 -22.5 9.5 30.75 30.75 0 0 1 22.5-9.5z" fill="#431951" transform="translate(-10.42 -7.9)"/></svg>